<svg xmlns="http://www.w3.org/2000/svg" viewBox="0 0 41 42" width="41" height="42">
	<defs>
		<linearGradient id="grd1" gradientUnits="userSpaceOnUse"  x1="0.667" y1="1.053" x2="40.747" y2="41.133">
			<stop offset="0" stop-color="#ff3b49"  />
			<stop offset="0" stop-color="#ff3b49"  />
			<stop offset="1" stop-color="#ff3b49"  />
		</linearGradient>
	</defs>
	<style>
		tspan { white-space:pre }
		.shp0 { fill: url(#grd1) } 
	</style>
	<path id="Settings" class="shp0" d="M20.71 26.66C17.65 26.66 15.16 24.16 15.16 21.09C15.16 18.02 17.65 15.53 20.71 15.53C23.77 15.53 26.26 18.02 26.26 21.09C26.26 24.16 23.77 26.66 20.71 26.66ZM20.71 16.97C18.44 16.97 16.6 18.82 16.6 21.09C16.6 23.36 18.44 25.21 20.71 25.21C22.97 25.21 24.82 23.36 24.82 21.09C24.82 18.82 22.97 16.97 20.71 16.97ZM18.29 41.19C17.97 41.19 17.68 40.96 17.6 40.64L16.36 35.68C15.4 35.38 14.45 34.98 13.53 34.48L9.13 37.13C8.85 37.3 8.48 37.25 8.25 37.02L4.83 33.59C4.6 33.36 4.55 32.99 4.72 32.71L7.37 28.3C6.87 27.39 6.48 26.44 6.19 25.46L1.21 24.22C0.89 24.14 0.67 23.85 0.67 23.52L0.67 18.67C0.67 18.34 0.89 18.05 1.21 17.98L6.16 16.74C6.46 15.76 6.87 14.81 7.36 13.89L4.72 9.48C4.55 9.19 4.6 8.83 4.83 8.6L8.24 5.17C8.48 4.94 8.84 4.89 9.12 5.07L13.52 7.71C14.43 7.22 15.38 6.83 16.35 6.53L17.59 1.54C17.67 1.22 17.96 1 18.29 1L23.12 1C23.45 1 23.74 1.22 23.82 1.54L25.05 6.51C26.03 6.81 26.98 7.22 27.88 7.71L32.29 5.06C32.57 4.89 32.93 4.94 33.17 5.17L36.58 8.59C36.82 8.82 36.86 9.19 36.69 9.47L34.05 13.89C34.53 14.8 34.93 15.75 35.22 16.72L40.2 17.97C40.52 18.05 40.75 18.34 40.75 18.67L40.75 23.51C40.75 23.84 40.52 24.13 40.2 24.21L35.22 25.46C34.93 26.44 34.53 27.39 34.05 28.29L36.7 32.7C36.87 32.99 36.82 33.35 36.59 33.59L33.17 37.02C32.94 37.25 32.57 37.29 32.3 37.13L27.89 34.47C26.98 34.97 26.03 35.37 25.06 35.68L23.83 40.64C23.74 40.96 23.46 41.19 23.13 41.19L18.29 41.19L18.29 41.19ZM13.51 32.92C13.64 32.92 13.76 32.95 13.87 33.02C14.93 33.63 16.03 34.1 17.15 34.41C17.4 34.48 17.59 34.68 17.66 34.93L18.86 39.75L22.56 39.74L23.76 34.93C23.83 34.68 24.02 34.48 24.26 34.41C25.4 34.09 26.5 33.62 27.54 33.02C27.77 32.88 28.05 32.89 28.27 33.02L32.55 35.6L35.17 32.96L32.6 28.68C32.47 28.45 32.47 28.17 32.6 27.94C33.19 26.91 33.64 25.82 33.95 24.67C34.02 24.42 34.22 24.23 34.47 24.16L39.31 22.95L39.31 19.23L34.47 18.02C34.22 17.95 34.02 17.76 33.95 17.51C33.64 16.37 33.19 15.27 32.6 14.23C32.47 14.01 32.47 13.73 32.6 13.5L35.17 9.21L32.55 6.59L28.27 9.16C28.05 9.3 27.77 9.3 27.54 9.17C26.5 8.56 25.39 8.1 24.26 7.78C24.01 7.71 23.82 7.51 23.76 7.26L22.56 2.44L18.85 2.44L17.64 7.29C17.58 7.54 17.39 7.74 17.14 7.81C16 8.12 14.9 8.57 13.87 9.17C13.64 9.3 13.37 9.3 13.14 9.16L8.86 6.59L6.24 9.22L8.81 13.5C8.94 13.73 8.94 14.01 8.81 14.24C8.21 15.29 7.74 16.4 7.43 17.53C7.35 17.78 7.16 17.97 6.91 18.04L2.11 19.24L2.11 22.95L6.94 24.17C7.19 24.23 7.39 24.43 7.46 24.68C7.77 25.81 8.22 26.92 8.82 27.95C8.95 28.18 8.95 28.46 8.81 28.69L6.25 32.97L8.87 35.6L13.14 33.03C13.26 32.96 13.39 32.92 13.51 32.92Z" />
</svg>